<?xml version="1.0" standalone="no"?>
<!DOCTYPE svg PUBLIC "-//W3C//DTD SVG 20010904//EN"
 "http://www.w3.org/TR/2001/REC-SVG-20010904/DTD/svg10.dtd">
<svg version="1.0" xmlns="http://www.w3.org/2000/svg"
 width="1024.000000pt" height="1024.000000pt" viewBox="0 0 1024.000000 1024.000000"
 preserveAspectRatio="xMidYMid meet">

<g transform="translate(0.000000,1024.000000) scale(0.100000,-0.100000)"
fill="#000000" stroke="none">
<path d="M2502 8550 c-156 -41 -308 -152 -385 -281 -120 -204 -209 -614 -247
-1144 -36 -500 45 -1136 177 -1400 143 -283 297 -404 477 -375 226 37 393 309
436 710 23 212 -17 487 -95 657 -61 133 -145 232 -236 280 -47 24 -65 28 -139
28 -74 0 -93 -4 -144 -29 -195 -96 -344 -403 -347 -718 -1 -48 -5 -86 -9 -83
-8 5 -25 118 -36 243 -5 57 -3 77 9 90 18 21 28 62 16 63 -5 1 -15 2 -21 3 -7
0 -14 15 -16 33 -3 30 -1 32 33 35 34 3 38 7 59 59 59 147 167 274 278 328 72
36 164 55 225 48 49 -5 47 -10 58 133 8 111 33 271 60 394 l25 110 -56 105
c-161 302 -291 438 -397 417 -18 -4 -50 -18 -71 -33 l-40 -26 32 41 c42 53
108 85 156 76 171 -32 346 -325 786 -1319 498 -1124 715 -1487 962 -1607 237
-115 542 -10 718 246 165 241 289 1013 260 1611 -27 557 -126 925 -309 1152
-90 111 -230 182 -335 169 -191 -22 -346 -219 -417 -526 -26 -110 -36 -362
-20 -482 40 -303 165 -537 331 -624 47 -24 67 -28 135 -29 71 0 88 4 147 33
186 91 312 344 344 687 8 96 16 78 33 -73 7 -65 7 -110 1 -133 -13 -45 -13
-49 5 -49 10 0 15 -11 15 -35 0 -31 -3 -35 -27 -35 -26 0 -31 -7 -58 -78 -58
-150 -172 -288 -286 -344 -61 -29 -147 -48 -224 -48 l-52 0 -7 -101 c-7 -111
-29 -267 -52 -374 -31 -140 -33 -127 46 -270 89 -161 141 -234 217 -307 93
-88 167 -99 241 -35 l36 32 -20 -33 c-30 -53 -90 -92 -141 -92 -62 0 -111 29
-184 108 -147 158 -288 439 -824 1632 -340 757 -570 1084 -814 1160 -82 26
-210 26 -309 0z m2003 -130 c20 -22 44 -85 45 -116 l0 -21 -40 19 c-22 11 -67
22 -101 25 l-61 6 6 35 c13 83 97 112 151 52z m-1600 9 c16 -16 -30 -10 -51 7
-18 15 -18 15 11 9 17 -4 34 -11 40 -16z m-444 -59 c25 -14 24 -30 -2 -30 -25
0 -59 17 -59 30 0 13 36 13 61 0z m521 -7 c25 -23 22 -35 -8 -31 -15 2 -33 13
-42 26 -14 21 -13 22 8 22 13 0 32 -7 42 -17z m-426 -76 l27 -24 -28 -7 c-21
-5 -33 -2 -52 16 -22 21 -23 23 -6 29 27 11 30 11 59 -14z m513 -21 l22 -24
-27 -6 c-22 -6 -31 -3 -45 16 -13 17 -14 25 -6 30 20 13 32 9 56 -16z m1166 2
c21 -31 53 -137 60 -200 l5 -53 -18 62 c-35 115 -53 153 -72 153 -25 0 -67
-52 -107 -135 -31 -62 -34 -66 -28 -31 17 100 86 226 124 226 11 0 27 -10 36
-22z m499 -86 c38 -57 68 -159 70 -232 1 -61 -17 -130 -34 -130 -4 0 -10 25
-14 55 -9 76 -60 232 -91 277 -29 43 -31 63 -8 77 24 13 48 -2 77 -47z m-2084
-13 c0 -4 -12 -10 -26 -13 -19 -5 -30 -2 -40 11 -18 25 -17 41 4 46 16 3 62
-28 62 -44z m486 4 c20 -27 17 -43 -10 -43 -30 0 -63 40 -43 52 20 13 39 9 53
-9z m-429 -90 c14 -21 13 -23 -12 -29 -22 -5 -31 -2 -46 17 -9 13 -15 27 -12
32 9 15 56 2 70 -20z m497 -18 c9 -14 14 -30 11 -35 -11 -17 -54 -11 -65 9
-18 34 -13 42 31 50 4 0 14 -10 23 -24z m-438 -81 c15 -22 15 -27 3 -35 -25
-16 -49 -9 -61 17 -10 21 -9 27 3 35 23 15 38 10 55 -17z m-626 2 c0 -20 -16
-36 -36 -36 -23 0 -32 18 -17 33 7 8 53 10 53 3z m1140 -62 c0 -20 -50 -18
-66 4 -20 25 -17 40 9 44 23 5 57 -24 57 -48z m-444 -79 c-5 -18 -49 -18 -63
1 -19 26 -16 42 10 46 23 4 59 -28 53 -47z m-728 3 c-2 -18 -11 -24 -35 -26
-18 -2 -33 1 -33 7 0 27 14 41 42 41 25 0 29 -4 26 -22z m1221 -15 c13 -28 3
-43 -29 -43 -21 0 -55 56 -38 63 32 13 55 6 67 -20z m1145 12 c46 -46 40 -195
-8 -227 -48 -33 -90 22 -90 117 0 75 24 125 59 125 13 0 31 -7 39 -15z m-1589
-85 c17 -33 19 -29 -30 -45 -10 -3 -19 5 -25 21 -14 36 -13 42 13 47 12 2 23
5 24 6 1 0 10 -13 18 -29z m-814 -20 c6 0 9 -12 7 -27 -2 -23 -8 -29 -35 -31
-25 -3 -33 1 -33 13 0 28 21 57 37 51 8 -3 19 -6 24 -6z m1313 -19 c14 -26 14
-30 0 -35 -29 -11 -44 -6 -56 20 -10 21 -9 27 3 35 24 15 38 10 53 -20z m-793
-28 c-5 -19 -15 -29 -30 -31 -30 -5 -42 8 -35 36 5 17 14 22 39 22 31 0 33 -2
26 -27z m353 -52 c14 -26 14 -30 0 -35 -32 -12 -50 -5 -61 24 -8 21 -8 30 1
34 27 11 47 4 60 -23z m1854 -105 c6 -104 -34 -232 -91 -293 -24 -26 -36 -28
-62 -9 -17 12 -17 15 14 69 41 71 78 177 93 267 11 63 14 69 27 55 10 -10 17
-40 19 -89z m-1356 68 c10 -21 9 -27 -3 -35 -24 -15 -38 -10 -53 20 -17 32
-13 41 21 41 15 0 27 -9 35 -26z m-1384 -23 c-2 -21 -9 -27 -35 -29 -30 -3
-33 -1 -33 26 0 37 3 40 40 34 27 -4 31 -8 28 -31z m512 0 c0 -37 -12 -51 -41
-51 -25 0 -29 4 -29 28 0 36 6 42 42 42 21 0 28 -5 28 -19z m425 -52 c19 -35
19 -35 -17 -44 -24 -6 -29 -3 -38 20 -14 37 -13 43 13 48 12 2 23 5 24 6 1 0
10 -13 18 -30z m515 -64 c0 -15 -49 -30 -60 -18 -4 4 -11 18 -15 31 -5 17 -1
24 17 31 18 7 27 5 41 -11 9 -11 17 -26 17 -33z m-1470 -5 c0 -36 -12 -50 -41
-50 -26 0 -29 3 -29 33 0 42 3 45 40 39 21 -3 30 -10 30 -22z m510 -9 c0 -37
-12 -51 -41 -51 -26 0 -29 3 -29 35 0 33 2 35 35 35 28 0 35 -4 35 -19z m500
-30 c16 -32 12 -48 -15 -54 -21 -3 -29 1 -40 24 -19 35 -19 37 3 42 33 9 41 7
52 -12z m1127 -161 c14 -11 31 -20 38 -20 13 0 41 62 70 155 l15 50 -5 -48
c-11 -110 -58 -217 -95 -217 -24 0 -70 68 -101 149 -38 102 -33 119 10 34 23
-45 54 -91 68 -103z m-622 110 c15 -29 15 -31 -10 -40 -35 -13 -32 -14 -50 20
-19 36 -19 38 3 43 35 9 42 6 57 -23z m-1537 -57 c3 -32 2 -33 -32 -33 -37 0
-41 6 -30 48 5 18 13 22 33 20 21 -2 27 -9 29 -35z m510 -10 c3 -32 2 -33 -32
-33 -33 0 -36 3 -36 28 0 36 8 44 40 40 20 -2 26 -9 28 -35z m579 -14 c11 -28
10 -31 -13 -40 -14 -5 -27 -9 -28 -9 -2 0 -9 14 -16 31 -11 26 -11 32 1 40 26
16 45 9 56 -22z m501 -42 c16 -33 14 -37 -24 -40 -22 -2 -30 3 -38 26 -8 22
-7 30 4 38 24 14 44 6 58 -24z m1360 -49 c-3 -29 -7 -33 -35 -36 -32 -3 -33
-2 -33 32 0 35 1 36 36 36 34 0 35 -1 32 -32z m-2958 -23 c0 -33 -2 -35 -35
-35 -33 0 -35 2 -35 35 0 33 2 35 35 35 33 0 35 -2 35 -35z m494 29 c10 -4 16
-18 16 -35 0 -26 -3 -29 -35 -29 -32 0 -35 3 -35 28 0 41 15 51 54 36z m655
-30 c13 -30 9 -40 -19 -47 -13 -3 -25 2 -35 16 -20 28 -19 45 3 50 33 9 39 7
51 -19z m1386 -31 c-20 -109 -97 -165 -154 -112 -24 22 -41 59 -41 87 0 14 10
17 53 18 30 0 71 9 97 21 25 12 47 22 49 22 2 1 0 -16 -4 -36z m-885 -14 c11
-26 11 -32 -1 -40 -25 -16 -45 -10 -57 16 -16 35 -15 43 6 48 34 9 40 7 52
-24z m1305 -69 c0 -32 -3 -35 -32 -38 -31 -3 -33 -2 -33 31 0 41 7 49 40 45
21 -3 25 -8 25 -38z m-2987 14 c17 -5 22 -14 22 -40 0 -31 -3 -34 -29 -34 -36
0 -43 9 -35 49 7 33 8 34 42 25z m1239 -23 c10 -28 9 -30 -17 -39 -25 -9 -29
-7 -43 23 -15 31 -15 34 1 38 37 10 48 6 59 -22z m498 -42 c19 -35 19 -35 -17
-44 -23 -6 -29 -2 -43 24 -15 30 -15 32 7 41 34 13 36 13 53 -21z m-445 -79
c14 -35 14 -35 -21 -43 -23 -6 -28 -2 -39 24 -11 26 -11 32 1 40 26 16 47 9
59 -21z m1700 -5 c0 -33 -2 -35 -35 -35 -33 0 -35 2 -35 35 0 33 2 35 35 35
33 0 35 -2 35 -35z m-2970 -20 c0 -33 -2 -35 -35 -35 -33 0 -35 2 -35 35 0 33
2 35 35 35 33 0 35 -2 35 -35z m522 -18 c9 -12 21 -39 26 -59 l10 -38 -58 0
c-41 0 -70 -7 -104 -25 -42 -22 -46 -23 -46 -7 0 40 33 113 63 138 36 31 82
27 109 -9z m1252 -14 c6 -18 2 -24 -19 -29 -29 -7 -39 0 -50 34 -5 17 -1 24
17 31 26 10 42 -1 52 -36z m-451 -67 c7 -21 6 -30 -4 -37 -24 -15 -38 -10 -54
21 -19 36 -19 38 3 43 32 9 45 2 55 -27z m1637 -21 c0 -33 -2 -35 -35 -35 -33
0 -35 2 -35 35 0 33 2 35 35 35 33 0 35 -2 35 -35z m-510 -10 c0 -33 -2 -35
-35 -35 -32 0 -35 3 -35 28 0 36 6 42 42 42 25 0 28 -3 28 -35z m-2450 -11 c0
-34 -1 -35 -32 -32 -29 3 -33 7 -36 36 -3 31 -2 32 32 32 35 0 36 -1 36 -36z
m1826 1 c9 -14 15 -27 13 -28 -2 -2 -16 -8 -32 -15 -26 -11 -28 -10 -40 21
-10 23 -11 34 -3 39 21 15 46 8 62 -17z m-1065 -58 c30 -50 88 -217 74 -217
-2 0 -18 33 -37 73 -34 71 -86 137 -107 137 -16 0 -38 -49 -62 -137 -12 -43
-24 -80 -26 -83 -10 -10 10 107 29 169 24 78 58 117 88 101 12 -6 30 -26 41
-43z m618 -17 c9 -28 8 -32 -16 -41 -14 -5 -27 -8 -28 -7 -8 10 -25 48 -25 57
0 9 19 17 47 20 6 0 16 -13 22 -29z m-1123 -15 c4 -8 -12 -52 -34 -97 -44 -89
-82 -212 -82 -265 0 -18 -5 -33 -10 -33 -38 0 -38 186 0 285 35 90 109 155
126 110z m1623 -27 c13 -36 14 -34 -20 -43 -21 -5 -27 -2 -37 20 -16 34 -16
34 11 45 33 13 34 13 46 -22z m561 -3 c0 -33 -2 -35 -35 -35 -33 0 -35 2 -35
35 0 33 2 35 35 35 33 0 35 -2 35 -35z m508 3 c-3 -29 -7 -33 -35 -36 -32 -3
-33 -2 -33 32 0 35 1 36 36 36 34 0 35 -1 32 -32z m-1515 -81 c10 -32 10 -32
-20 -41 -18 -6 -25 -1 -38 25 -14 26 -15 33 -3 40 24 16 51 5 61 -24z m500
-39 c12 -29 12 -34 -2 -40 -30 -12 -40 -8 -56 22 -15 29 -15 31 7 40 35 13 37
12 51 -22z m492 12 c3 -5 3 -21 -1 -35 -5 -21 -12 -25 -41 -25 -32 0 -35 2
-29 23 3 12 6 28 6 35 0 14 56 17 65 2z m511 -17 c-3 -8 -6 -21 -6 -29 0 -9
-11 -14 -35 -14 -37 0 -44 14 -26 49 13 23 75 17 67 -6z m-1451 -73 c17 -32
14 -35 -29 -42 -25 -4 -46 50 -25 63 24 15 38 10 54 -21z m505 -40 c14 -35 14
-36 -21 -45 -21 -5 -27 -2 -37 20 -17 36 -15 43 11 48 12 2 25 5 28 6 4 0 12
-13 19 -29z m416 -16 c-3 -9 -6 -22 -6 -30 0 -9 -11 -14 -35 -14 -37 0 -38 2
-29 38 5 17 13 22 41 22 28 0 34 -3 29 -16z m510 0 c-3 -9 -6 -24 -6 -35 0
-15 -7 -19 -36 -19 -33 0 -36 2 -30 23 3 12 6 28 6 35 0 7 14 12 36 12 29 0
35 -3 30 -16z m-1374 -60 c13 -27 1 -44 -33 -44 -22 0 -45 50 -27 61 24 16 48
9 60 -17z m-1035 -53 c47 -69 20 -212 -40 -219 -72 -9 -96 196 -29 246 24 18
43 11 69 -27z m1542 12 c13 -29 3 -43 -32 -43 -25 0 -46 48 -26 61 25 16 45
10 58 -18z m329 -40 c-3 -24 -7 -28 -32 -26 -35 3 -37 4 -29 31 4 16 13 22 35
22 26 0 29 -3 26 -27z m510 -10 c-2 -23 -8 -29 -35 -31 -35 -3 -36 -1 -27 36
5 16 14 22 36 22 26 0 29 -3 26 -27z m-1293 -24 c19 -35 19 -34 -16 -42 -21
-5 -28 -2 -37 19 -7 14 -12 27 -12 30 0 4 30 19 47 23 1 1 10 -13 18 -30z
m508 -39 c18 -30 18 -30 -8 -40 -35 -13 -32 -14 -50 20 -15 29 -15 31 7 40 33
13 32 13 51 -20z m760 -47 c3 -5 1 -18 -4 -30 -6 -17 -16 -23 -38 -23 -29 0
-30 1 -20 30 8 22 17 30 34 30 13 0 26 -3 28 -7z m-1209 -32 c15 -28 15 -29
-11 -36 -21 -5 -31 -1 -45 17 -22 29 -22 35 0 41 35 9 42 6 56 -22z m-1510
-66 c8 -74 49 -197 90 -272 36 -67 32 -88 -16 -81 -28 4 -82 89 -105 168 -28
95 -18 240 16 240 5 0 11 -25 15 -55z m2020 30 c16 -24 16 -26 -9 -35 -35 -13
-32 -14 -50 19 -11 23 -12 31 -2 34 27 11 45 6 61 -18z m-450 -74 c15 -27 14
-29 -7 -35 -34 -9 -35 -8 -52 23 -14 27 -13 30 3 34 35 9 42 6 56 -22z m1116
2 c0 -16 -16 -30 -37 -37 -18 -6 -23 -3 -23 12 0 10 3 22 7 25 9 9 53 9 53 0z
m-599 -46 c8 -14 5 -19 -18 -28 -23 -9 -30 -7 -45 13 -23 31 -23 35 10 46 28
9 31 7 53 -31z m-1406 -103 c-8 -32 -32 -93 -53 -134 -33 -67 -40 -75 -68 -78
-29 -3 -34 1 -52 40 -22 44 -52 171 -51 211 0 12 13 -18 28 -68 29 -96 46
-135 60 -135 21 0 73 69 108 145 21 46 39 82 40 81 2 -1 -4 -29 -12 -62z m949
41 c21 -32 21 -32 -11 -40 -20 -5 -31 -2 -40 11 -23 32 -16 45 28 53 4 0 14
-10 23 -24z m526 -56 c0 -5 -11 -12 -26 -15 -18 -5 -29 -1 -39 12 -20 26 -18
33 8 44 17 6 26 4 40 -12 9 -11 17 -24 17 -29z m-468 -46 c10 -9 18 -22 18
-30 0 -19 -50 -16 -66 5 -18 23 -17 30 4 35 9 3 19 5 21 6 3 0 13 -6 23 -16z
m533 -35 c15 -22 14 -23 -12 -32 -22 -7 -30 -5 -45 14 -10 12 -15 26 -12 31
10 17 53 9 69 -13z m-452 -83 c18 -25 18 -25 -9 -25 -27 0 -64 24 -64 42 0 19
56 6 73 -17z m526 -6 c27 -22 26 -25 -9 -34 -33 -8 -74 30 -50 45 21 14 32 12
59 -11z m-1985 -65 c33 -9 68 -13 78 -11 25 7 30 -5 16 -44 -23 -70 -75 -97
-129 -68 -22 11 -69 102 -69 133 0 14 5 17 23 11 12 -4 49 -13 81 -21z m1525
-18 c21 -22 21 -24 4 -28 -10 -2 -31 5 -47 16 -27 18 -28 20 -10 27 28 11 29
11 53 -15z m559 8 c32 -9 27 -24 -7 -24 -35 0 -61 9 -61 21 0 10 34 12 68 3z
m-467 -104 c14 -11 18 -19 11 -20 -15 0 -72 28 -72 35 0 13 40 3 61 -15z"/>
<path d="M4109 8556 c-102 -36 -179 -116 -250 -260 -175 -355 -152 -900 52
-1212 75 -115 158 -173 263 -181 l61 -5 -34 25 c-67 51 -218 213 -248 267 -81
144 -124 333 -124 545 0 215 47 427 124 551 33 54 177 209 237 256 l35 27 -40
0 c-22 0 -56 -6 -76 -13z"/>
<path d="M6475 8514 c-268 -47 -404 -227 -579 -762 -35 -109 -114 -372 -176
-587 -61 -214 -129 -448 -151 -518 -21 -71 -39 -132 -39 -137 0 -5 33 5 73 21
110 46 274 93 462 133 242 51 228 46 243 92 7 21 60 216 117 432 58 217 128
468 156 559 116 380 226 580 353 645 52 26 147 22 196 -9 l34 -21 -62 5 c-46
4 -74 1 -108 -12 -92 -35 -184 -156 -248 -328 l-25 -64 34 -89 c48 -127 103
-317 184 -628 38 -147 72 -271 75 -274 3 -3 59 11 123 31 156 49 273 74 416
88 65 7 117 16 117 22 0 51 -202 705 -272 882 -108 271 -231 427 -383 484
-136 51 -366 66 -540 35z m370 -84 c-11 -5 -27 -9 -35 -9 -13 -1 -13 0 0 9 8
5 24 9 35 9 l20 0 -20 -9z m-517 -62 c-6 -16 -57 -42 -66 -33 -9 9 36 45 55
45 8 0 13 -6 11 -12z m462 2 c0 -19 -48 -42 -66 -32 -15 8 -14 11 7 26 26 18
59 21 59 6z m-532 -102 c-14 -21 -68 -39 -68 -23 0 24 24 45 52 45 29 0 30 -1
16 -22z m462 15 c0 -5 -9 -19 -19 -32 -14 -19 -24 -22 -45 -17 -26 6 -26 7 -9
31 17 23 73 36 73 18z m498 -100 c6 -19 -35 -16 -42 3 -4 11 0 15 16 12 12 -2
23 -9 26 -15z m-1018 -6 c0 -28 -29 -54 -54 -50 -25 5 -25 6 -10 34 10 20 22
29 39 29 14 0 25 -6 25 -13z m460 -2 c0 -2 -5 -16 -12 -30 -8 -18 -19 -25 -40
-25 -30 0 -34 10 -18 41 7 12 21 19 40 19 17 0 30 -2 30 -5z m620 -104 c14
-28 13 -31 -13 -31 -16 0 -28 9 -35 25 -11 23 -10 25 13 25 14 0 29 -8 35 -19z
m-1142 0 c10 -6 11 -13 1 -34 -12 -28 -33 -34 -58 -18 -12 8 -12 13 3 35 17
27 32 32 54 17z m472 -6 c0 -4 -7 -19 -15 -34 -11 -23 -19 -27 -40 -24 -27 6
-30 14 -15 44 7 12 21 19 40 19 17 0 30 -2 30 -5z m723 -117 c11 -41 -33 -52
-51 -13 -16 35 -16 35 17 35 21 0 30 -6 34 -22z m-1233 -2 c0 -33 -13 -46 -46
-46 -32 0 -33 1 -23 30 9 24 17 30 40 30 18 0 29 -5 29 -14z m773 -7 c5 -17 1
-20 -21 -17 -36 4 -44 38 -9 38 16 0 26 -7 30 -21z m-316 -21 c-7 -18 -19 -33
-25 -32 -7 1 -21 2 -31 3 -18 1 -19 5 -10 31 9 25 16 30 45 30 l34 0 -13 -32z
m362 -98 c10 -29 9 -30 -19 -30 -33 0 -53 36 -29 51 24 15 37 10 48 -21z m465
4 c8 -31 8 -31 -23 -36 -19 -2 -27 4 -38 30 l-13 32 34 0 c28 0 35 -4 40 -26z
m-1324 7 c0 -5 -5 -22 -10 -36 -9 -23 -14 -26 -38 -20 -35 9 -34 8 -23 39 8
20 17 26 41 26 16 0 30 -4 30 -9z m460 -10 c0 -31 -21 -61 -43 -61 -33 0 -37
7 -25 41 8 23 16 29 39 29 16 0 29 -4 29 -9z m-502 -115 c1 -2 -3 -16 -8 -33
-9 -25 -15 -29 -40 -25 -17 2 -30 5 -30 7 0 1 5 17 11 34 10 29 15 32 38 26
14 -4 27 -8 29 -9z m943 -18 c7 -26 5 -28 -22 -28 -22 0 -32 6 -39 26 -14 35
-14 36 22 32 25 -2 33 -9 39 -30z m470 0 c6 -23 3 -27 -20 -31 -29 -6 -51 14
-51 46 0 15 6 18 32 15 25 -2 33 -9 39 -30z m-951 -5 c0 -32 -18 -50 -48 -45
-28 4 -29 5 -20 36 9 28 14 32 39 28 17 -2 29 -10 29 -19z m519 -114 c6 -18
11 -33 11 -34 0 -6 -61 -11 -64 -6 -2 3 -7 20 -10 36 -6 28 -4 31 23 33 24 2
31 -3 40 -29z m469 -1 c9 -34 -1 -46 -40 -47 -22 -1 -36 58 -17 70 28 18 48 9
57 -23z m-1488 10 c0 -31 -14 -58 -29 -58 -30 0 -44 16 -37 44 5 21 12 26 36
26 17 0 30 -5 30 -12z m463 -6 c3 -4 3 -19 0 -35 -4 -22 -11 -27 -34 -27 -35
0 -42 11 -29 44 7 18 17 26 34 26 14 0 27 -3 29 -8z m-517 -108 c18 -5 21 -10
15 -32 -6 -21 -14 -28 -39 -30 -34 -3 -37 2 -22 42 10 28 13 29 46 20z m1104
-6 c0 -7 3 -23 6 -35 6 -20 3 -23 -24 -23 -24 0 -32 6 -40 29 -6 16 -8 32 -5
35 12 11 63 6 63 -6z m477 -22 c10 -31 9 -35 -11 -40 -37 -10 -42 -7 -53 28
-12 40 -9 46 27 46 22 0 29 -6 37 -34z m-1097 2 c0 -31 -14 -58 -29 -58 -30 0
-44 16 -37 44 5 21 12 26 36 26 17 0 30 -5 30 -12z m-506 -107 c4 -5 2 -21 -4
-35 -7 -20 -16 -26 -40 -26 -33 0 -35 5 -20 44 7 18 17 26 34 26 14 0 27 -4
30 -9z m1160 -7 c14 -37 7 -54 -23 -54 -23 0 -30 6 -35 25 -4 14 -4 30 -1 35
10 16 52 11 59 -6z m479 -17 c10 -32 11 -32 -25 -41 -23 -5 -27 -2 -37 26 -9
24 -8 34 1 40 24 15 51 4 61 -25z m-1175 15 c9 -6 10 -16 2 -38 -9 -26 -15
-30 -40 -26 -26 4 -29 7 -24 31 4 14 9 29 11 34 5 9 35 9 51 -1z m-504 -121
c12 -20 -13 -61 -37 -61 -33 0 -37 7 -25 41 7 21 16 29 33 29 13 0 26 -4 29
-9z m1229 2 c2 -5 7 -20 11 -35 6 -27 5 -28 -29 -28 -21 0 -35 5 -35 13 0 6
-3 22 -6 35 -6 19 -3 22 24 22 17 0 33 -3 35 -7z m481 -9 c14 -37 7 -54 -23
-54 -29 0 -41 14 -41 51 0 24 55 27 64 3z m-1231 0 c3 -3 1 -19 -5 -35 -8 -23
-16 -29 -39 -29 -30 0 -33 8 -23 48 5 16 14 22 33 22 15 0 30 -3 34 -6z m-518
-125 c4 -5 4 -21 1 -35 -5 -19 -13 -24 -36 -24 -31 0 -34 7 -24 48 7 23 47 31
59 11z m1308 -16 c7 -35 2 -43 -28 -43 -27 0 -29 3 -39 43 -6 25 -4 27 28 27
29 0 34 -4 39 -27z m-823 5 c-1 -43 -13 -59 -44 -56 -25 2 -30 7 -28 23 6 39
12 45 42 45 17 0 30 -5 30 -12z m-516 -117 c11 -16 -13 -61 -31 -61 -34 0 -45
14 -34 43 8 19 18 27 35 27 14 0 27 -4 30 -9z m486 -10 c0 -26 -21 -61 -37
-61 -34 0 -45 14 -34 43 8 21 17 27 41 27 16 0 30 -4 30 -9z m-520 -129 c0
-34 -23 -54 -53 -47 -31 8 -30 6 -17 39 7 20 16 26 40 26 22 0 30 -5 30 -18z
m471 8 c12 0 12 -26 0 -49 -7 -13 -18 -16 -39 -13 -24 3 -29 8 -24 25 7 32 23
49 39 42 8 -3 19 -5 24 -5z m-512 -126 c1 -1 -1 -15 -6 -31 -8 -23 -14 -27
-39 -25 -37 5 -36 3 -23 40 10 28 14 31 37 26 15 -4 29 -8 31 -10z"/>
<path d="M7585 7033 c-191 -16 -385 -68 -691 -186 -292 -113 -430 -156 -674
-212 -569 -131 -701 -181 -858 -329 -157 -148 -230 -377 -188 -587 65 -321
303 -457 565 -324 67 33 113 75 167 151 66 92 176 325 161 340 -12 12 -82 -16
-92 -38 -13 -29 -38 -34 -59 -12 -16 15 -22 15 -89 -10 -40 -15 -111 -48 -157
-74 -136 -77 -200 -153 -200 -240 0 -54 48 -98 117 -107 78 -10 80 -11 32 -19
-62 -10 -125 8 -166 49 -29 29 -33 40 -33 84 0 70 34 134 109 203 128 119 281
178 669 259 324 67 480 112 752 217 310 119 374 142 475 170 231 66 423 80
569 42 188 -48 286 -146 305 -305 l7 -60 23 60 c72 187 62 396 -30 581 -125
254 -375 376 -714 347z m198 -73 c12 0 17 -8 17 -30 0 -28 -2 -29 -32 -23 -40
7 -35 3 -44 37 -6 27 -5 29 17 23 13 -4 32 -7 42 -7z m-243 -41 c0 -27 -3 -29
-35 -29 -19 0 -35 3 -35 8 0 4 -3 17 -6 29 -5 19 -1 22 28 25 44 5 48 2 48
-33z m124 25 c10 -27 7 -32 -29 -36 -34 -4 -45 5 -45 38 0 20 66 19 74 -2z
m234 -1 c20 -5 49 -49 40 -59 -2 -1 -19 1 -37 5 -27 5 -36 13 -42 34 -8 29 -2
32 39 20z m-485 -39 c4 -20 -1 -27 -21 -35 -34 -13 -52 -5 -52 25 0 26 11 34
46 35 16 1 23 -6 27 -25z m628 -23 c38 -39 37 -54 -3 -33 -36 19 -48 31 -48
50 0 20 20 14 51 -17z m-755 -6 c8 -31 4 -35 -32 -38 -24 -2 -30 2 -32 22 -7
44 53 58 64 16z m-116 -48 c0 -18 -45 -42 -61 -31 -5 3 -9 16 -9 29 0 17 8 26
28 33 29 10 42 1 42 -31z m-122 -38 c3 -22 -2 -29 -27 -37 -27 -10 -30 -8 -36
16 -5 19 -2 30 12 39 26 20 48 12 51 -18z m1108 10 c19 -22 19 -22 -3 -10 -13
6 -23 16 -23 21 0 15 5 12 26 -11z m-1226 -44 c0 -14 0 -28 0 -32 0 -5 -12
-12 -26 -17 -47 -15 -63 45 -16 62 40 15 42 14 42 -13z m-120 -55 c0 -24 -6
-33 -26 -41 -31 -11 -29 -12 -38 24 -5 23 -2 29 16 37 39 15 48 12 48 -20z
m-120 -24 c0 -8 3 -21 6 -29 3 -10 -5 -18 -27 -26 -37 -13 -35 -14 -44 20 -6
23 -3 28 22 37 39 14 43 14 43 -2z m-120 -40 c0 -8 3 -21 6 -29 3 -10 -5 -18
-27 -26 -37 -13 -34 -14 -43 21 -5 22 -2 28 22 36 38 14 42 14 42 -2z m-120
-40 c0 -8 3 -21 6 -29 8 -21 -55 -35 -67 -16 -14 23 -10 47 9 52 34 9 52 7 52
-7z m-120 -46 c0 -24 -5 -31 -26 -36 -28 -7 -44 7 -44 38 0 16 16 24 53 27 13
1 17 -7 17 -29z m-120 -29 c0 -23 -5 -30 -27 -34 -35 -7 -43 -2 -43 28 0 17 8
26 28 33 35 12 42 7 42 -27z m1528 7 c3 -24 0 -28 -22 -28 -14 0 -29 -1 -33
-2 -9 -4 -23 49 -15 57 4 3 20 5 37 3 24 -2 31 -8 33 -30z m132 18 c0 -8 3
-21 6 -30 5 -13 -1 -16 -34 -16 -37 0 -40 2 -44 30 -4 29 -3 30 34 30 26 0 38
-4 38 -14z m-259 -28 c8 -29 -4 -38 -47 -38 -20 0 -24 5 -24 29 0 23 5 31 23
34 34 6 40 3 48 -25z m385 19 c1 -1 6 -15 10 -31 7 -28 6 -28 -27 -21 -46 10
-49 12 -49 42 0 23 3 25 32 19 17 -3 33 -7 34 -9z m-1906 -48 c0 -18 -20 -29
-50 -29 -11 0 -19 9 -22 25 -5 21 -1 26 26 33 33 9 46 1 46 -29z m1394 5 c8
-32 8 -32 -32 -40 -25 -5 -32 -3 -32 9 0 8 -3 22 -6 30 -5 14 7 20 52 26 7 0
15 -11 18 -25z m644 -32 c4 -26 0 -27 -38 -7 -22 11 -30 23 -30 41 l0 26 33
-19 c17 -11 33 -29 35 -41z m-2168 24 c0 -8 3 -21 6 -29 4 -11 -4 -17 -26 -22
-36 -8 -39 -7 -42 25 -2 18 3 25 22 31 37 11 40 10 40 -5z m1402 -30 c4 -21 0
-27 -25 -36 -36 -12 -37 -11 -40 26 -2 22 3 29 23 34 32 9 37 6 42 -24z
m-1520 -16 c4 -25 0 -31 -26 -40 -35 -12 -49 -2 -44 31 3 20 21 32 59 38 4 1
9 -12 11 -29z m1398 -15 c0 -14 0 -28 0 -32 0 -9 -49 -27 -55 -22 -2 2 -6 16
-10 30 -6 23 -3 28 22 37 41 15 43 14 43 -13z m1010 -49 c0 -18 -3 -17 -30 9
-16 16 -30 38 -30 49 0 18 3 17 30 -9 17 -16 30 -38 30 -49z m-2530 25 c0 -24
-6 -31 -31 -40 -41 -14 -39 -15 -39 17 0 20 7 32 23 40 37 18 47 14 47 -17z
m1400 -31 c0 -24 -6 -33 -27 -41 -20 -7 -28 -6 -35 3 -14 24 -8 49 15 58 38
15 47 12 47 -20z m-1520 -18 c0 -34 -46 -64 -61 -40 -15 23 -10 37 19 52 38
21 42 20 42 -12z m1404 -24 c6 -27 0 -34 -35 -43 -23 -6 -27 -3 -31 19 -9 44
54 66 66 24z m-1514 -50 c0 -9 -13 -26 -29 -37 l-29 -21 -6 22 c-4 16 3 31 21
50 28 29 43 24 43 -14z m1392 2 c4 -25 0 -31 -25 -40 -35 -12 -32 -13 -40 21
-5 21 -2 28 16 37 35 17 44 14 49 -18z m-120 -41 c4 -25 1 -32 -19 -40 -35
-13 -43 -11 -43 11 0 11 -1 23 -1 28 -2 7 39 32 52 32 4 0 9 -14 11 -31z
m-122 -34 c0 -14 0 -28 0 -32 0 -9 -49 -27 -55 -22 -2 2 -6 16 -10 30 -6 23
-3 28 22 37 41 15 43 14 43 -13z m-1260 -4 c0 -21 -45 -80 -54 -71 -8 8 32 90
44 90 5 0 10 -9 10 -19z m1140 -41 c0 -23 -5 -31 -24 -36 -32 -8 -46 2 -46 31
0 22 10 28 58 34 7 0 12 -11 12 -29z m-124 -25 c8 -31 4 -35 -32 -38 -25 -2
-29 2 -32 25 -2 19 2 28 15 31 36 9 43 7 49 -18z m-120 -30 c8 -31 6 -33 -33
-41 -27 -5 -31 -3 -36 22 -6 32 5 44 40 44 16 0 25 -8 29 -25z m-124 -15 c0
-11 1 -25 2 -32 1 -7 -13 -15 -31 -19 -26 -5 -32 -3 -37 15 -10 36 -7 44 17
49 42 8 47 7 49 -13z m-124 -39 c4 -26 -12 -41 -45 -41 -19 0 -23 6 -23 29 0
45 62 56 68 12z m-124 -28 c8 -29 -5 -43 -41 -43 -19 0 -23 6 -23 29 0 23 5
31 23 34 12 2 25 5 28 6 4 0 10 -11 13 -26z m-120 -39 c4 -15 6 -27 4 -28 -14
-9 -61 -26 -64 -24 -1 2 -4 16 -6 32 -3 28 9 38 53 45 4 1 10 -11 13 -25z
m-120 -40 c11 -29 6 -40 -28 -56 l-34 -17 -4 30 c-4 24 0 33 21 44 34 18 38
18 45 -1z m-114 -87 c0 -20 -40 -58 -52 -50 -15 9 -8 47 14 70 23 25 38 17 38
-20z m-101 -87 c0 -8 -10 -28 -23 -44 -23 -28 -24 -28 -31 -7 -8 28 33 100 46
79 5 -7 9 -20 8 -28z m491 -5 c0 -2 -5 -16 -12 -30 -8 -18 -19 -25 -40 -25
-32 0 -32 0 -16 35 8 18 19 25 40 25 15 0 28 -2 28 -5z m-580 -124 c0 -17 -4
-33 -10 -36 -6 -4 -10 8 -10 29 0 20 5 36 10 36 6 0 10 -13 10 -29z m507 -8
c4 -12 -35 -29 -44 -19 -8 8 18 37 30 33 6 -2 12 -8 14 -14z"/>
<path d="M2700 7012 c52 -35 208 -196 239 -247 137 -226 178 -600 100 -903
-11 -42 -39 -120 -62 -172 -36 -84 -52 -106 -132 -189 -49 -51 -108 -106 -129
-122 l-39 -29 51 0 c116 0 228 93 311 257 130 259 159 658 71 979 -30 111
-109 270 -165 331 -60 68 -149 113 -219 112 l-51 0 25 -17z"/>
<path d="M7705 6363 c-69 -9 -235 -45 -298 -65 l-69 -21 7 -34 c6 -31 4 -33
-24 -33 -21 0 -32 6 -36 20 -3 11 -10 20 -15 20 -18 0 -60 -24 -60 -33 0 -24
84 -287 121 -381 74 -185 134 -289 203 -353 127 -119 186 -133 556 -140 l284
-5 -69 65 c-81 74 -142 171 -210 330 -45 105 -139 376 -190 550 l-26 87 -72
-1 c-40 -1 -85 -4 -102 -6z m135 -119 c15 -39 13 -44 -25 -44 -21 0 -35 5 -35
13 0 6 -3 22 -6 35 -6 19 -3 22 25 22 25 0 34 -6 41 -26z m-460 -118 c0 -8 3
-21 6 -30 5 -13 -1 -16 -30 -16 -24 0 -36 5 -36 14 0 8 -3 21 -6 30 -5 13 1
16 30 16 24 0 36 -5 36 -14z m495 2 c14 -42 10 -53 -21 -56 -27 -3 -32 1 -41
33 l-11 35 34 0 c19 0 37 -6 39 -12z m-455 -125 c0 -5 3 -18 6 -30 6 -20 3
-23 -25 -23 -25 0 -34 6 -41 26 -6 14 -10 27 -10 30 0 7 70 4 70 -3z m501 -20
c7 -20 6 -28 -3 -35 -24 -15 -45 -8 -56 17 -18 38 -15 45 18 45 24 0 33 -6 41
-27z m-456 -123 l16 -30 -36 0 c-29 0 -37 5 -45 26 -14 35 -14 34 20 34 23 0
33 -7 45 -30z m499 4 c12 -32 6 -44 -23 -44 -23 0 -31 6 -40 30 -10 29 -9 30
23 30 22 0 36 -6 40 -16z m-449 -124 l16 -30 -30 0 c-20 0 -35 8 -45 22 -22
32 -20 38 14 38 23 0 33 -7 45 -30z m504 -10 c10 -29 9 -30 -24 -30 -28 0 -35
5 -44 30 -10 29 -9 30 24 30 28 0 35 -5 44 -30z m-451 -105 c16 -34 16 -33
-15 -27 -26 5 -52 27 -53 45 0 4 13 7 28 7 21 0 32 -7 40 -25z m499 -5 c12
-23 11 -25 -14 -28 -28 -4 -53 18 -53 46 0 24 53 10 67 -18z m-446 -90 c30
-17 22 -30 -11 -19 -16 6 -30 15 -30 20 0 12 17 11 41 -1z m505 -17 c20 -27
17 -35 -12 -31 -15 2 -33 13 -42 26 -14 21 -13 22 13 22 15 0 34 -8 41 -17z
m69 -93 c8 -13 -15 -13 -35 0 -12 8 -11 10 7 10 12 0 25 -4 28 -10z"/>
<path d="M3190 4897 c545 -193 883 -664 961 -1340 15 -127 6 -426 -15 -542
-111 -605 -454 -1049 -951 -1231 l-90 -33 181 -1 c459 -1 784 80 1066 266 101
66 291 259 360 364 266 408 346 920 219 1413 -149 577 -530 951 -1101 1081
-117 27 -311 46 -520 52 l-205 5 95 -34z m520 -182 l25 -14 -25 0 c-14 0 -34
6 -44 14 -20 15 -20 15 0 15 10 -1 30 -7 44 -15z m120 -94 l24 -16 -28 -3
c-21 -3 -36 4 -55 23 l-26 26 30 -7 c17 -4 41 -14 55 -23z m463 -18 c18 -9 26
-18 19 -20 -7 -3 -27 5 -45 16 -38 25 -19 28 26 4z m-363 -89 l25 -24 -34 0
c-31 0 -70 29 -71 54 0 15 55 -5 80 -30z m488 -3 c28 -24 28 -31 -1 -31 -13 0
-34 11 -47 25 l-23 25 24 0 c13 -1 34 -9 47 -19z m-411 -93 c30 -28 29 -38 -5
-38 -27 0 -48 15 -66 48 -13 21 46 14 71 -10z m515 -18 l33 -29 -29 -1 c-28 0
-76 33 -76 52 0 18 42 6 72 -22z m-438 -102 c23 -32 20 -38 -17 -38 -26 0 -36
6 -45 25 -16 35 -16 35 17 35 20 0 35 -8 45 -22z m530 -13 c16 -25 16 -25 -18
-25 -25 0 -38 6 -50 25 -16 25 -16 25 18 25 25 0 38 -6 50 -25z m-461 -120
l17 -35 -39 0 c-31 0 -40 5 -49 25 -18 39 -15 45 21 45 28 0 36 -5 50 -35z
m540 -5 l18 -30 -39 0 c-32 0 -41 5 -50 25 -16 35 -16 35 21 35 26 0 36 -6 50
-30z m-493 -116 c15 -39 13 -44 -24 -44 -29 0 -36 5 -44 29 -9 25 -8 31 6 34
39 10 53 6 62 -19z m559 -15 c6 -18 11 -34 11 -35 0 -2 -16 -4 -35 -4 -29 0
-37 5 -45 26 -15 39 -13 44 24 44 29 0 36 -4 45 -31z m-512 -134 l11 -35 -39
0 c-24 0 -39 5 -39 13 0 6 -3 22 -6 35 -6 20 -3 22 28 22 31 0 36 -4 45 -35z
m558 3 c13 -33 13 -33 -18 -39 -39 -6 -43 -3 -52 39 -6 31 -5 32 25 32 25 0
33 -6 45 -32z m-539 -116 c6 -4 15 -22 19 -40 l7 -33 -38 3 c-34 3 -39 7 -45
35 -3 18 -4 35 -1 38 8 7 45 6 58 -3z m568 -8 c9 -8 16 -27 16 -40 0 -22 -4
-25 -32 -22 -53 5 -64 77 -11 78 6 0 19 -7 27 -16z m-526 -176 c3 -37 2 -38
-31 -38 -27 0 -36 5 -41 23 -13 50 -8 58 32 55 35 -3 37 -5 40 -40z m566 20
c12 -48 8 -58 -28 -58 -26 0 -35 5 -40 23 -12 47 -8 57 28 57 26 0 35 -5 40
-22z m-554 -168 c0 -39 -1 -40 -35 -40 -34 0 -35 1 -35 40 0 39 1 40 35 40 34
0 35 -1 35 -40z m570 0 c0 -39 -1 -40 -35 -40 -34 0 -35 1 -35 40 0 39 1 40
35 40 34 0 35 -1 35 -40z m-570 -150 c0 -39 -1 -40 -35 -40 -34 0 -35 1 -35
40 0 39 1 40 35 40 34 0 35 -1 35 -40z m575 0 c0 -33 -2 -35 -37 -38 -37 -3
-38 -2 -38 31 0 42 7 49 45 45 27 -3 30 -6 30 -38z m-579 -124 c1 0 -1 -16 -3
-33 -5 -30 -9 -33 -39 -33 -32 0 -34 2 -34 33 0 19 3 37 7 41 5 5 63 -1 69 -8z
m558 8 c10 -4 16 -18 16 -40 0 -33 -1 -34 -40 -34 -43 0 -48 8 -30 54 10 26
24 31 54 20z m-589 -184 c0 -33 -2 -35 -38 -38 l-39 -3 7 33 c10 46 13 50 43
46 24 -3 27 -8 27 -38z m581 8 c-3 -13 -6 -29 -6 -35 0 -8 -14 -13 -35 -13
-28 0 -35 4 -35 19 0 39 11 51 47 51 32 0 35 -2 29 -22z m-606 -146 c0 -15 -5
-33 -12 -40 -7 -7 -25 -12 -40 -12 -30 0 -34 12 -18 54 7 20 16 26 40 26 26 0
30 -4 30 -28z m580 19 c0 -4 -5 -22 -11 -40 -9 -27 -16 -31 -46 -31 -34 0 -34
1 -28 33 4 17 9 35 12 40 6 10 73 9 73 -2z m-623 -176 c-10 -32 -13 -35 -50
-35 -33 0 -38 3 -32 18 4 9 10 25 12 35 4 12 16 17 43 17 l38 0 -11 -35z m573
31 c0 -1 -5 -17 -11 -35 -9 -27 -16 -31 -45 -31 -37 0 -40 6 -22 45 9 19 19
25 45 25 18 0 33 -2 33 -4z m-625 -166 c-13 -24 -22 -30 -50 -30 -33 0 -34 0
-24 30 10 26 16 30 50 30 l40 0 -16 -30z m565 25 c0 -2 -5 -16 -12 -30 -9 -20
-18 -25 -50 -25 l-39 0 16 30 c13 25 22 30 50 30 19 0 35 -2 35 -5z m-620
-138 c0 -27 -31 -57 -61 -57 -33 0 -37 14 -13 48 17 24 74 32 74 9z m550 6
c-1 -23 -41 -53 -69 -53 l-32 0 16 30 c13 25 22 30 50 30 19 0 35 -3 35 -7z
m-620 -130 c-1 -22 -30 -43 -59 -43 -35 0 -36 2 -19 30 9 13 24 20 45 20 18 0
33 -3 33 -7z m510 -18 c-15 -16 -34 -25 -53 -25 l-30 0 23 25 c15 16 34 25 53
25 l30 0 -23 -25z m-100 -110 c-23 -24 -70 -35 -70 -16 0 16 43 41 69 41 l24
0 -23 -25z m-509 -9 c-20 -22 -81 -41 -81 -26 0 3 7 16 16 28 11 16 25 22 51
22 l36 0 -22 -24z m419 -77 c0 -12 -49 -39 -70 -39 -27 0 -25 12 5 31 25 15
65 20 65 8z m-490 -13 c0 -9 -48 -34 -80 -41 l-35 -7 24 26 c17 18 35 26 58
26 18 0 33 -2 33 -4z m350 -81 c0 -7 -58 -35 -72 -34 -7 0 5 9 27 20 45 21 45
21 45 14z m-495 -35 c-32 -21 -71 -27 -60 -9 9 13 44 28 70 28 16 1 15 -3 -10
-19z"/>
<path d="M2538 4910 c-182 -29 -302 -84 -404 -185 -116 -115 -172 -239 -194
-433 -26 -225 34 -532 157 -794 20 -43 39 -75 43 -73 4 2 10 35 13 73 4 38 10
83 13 100 6 29 4 32 -19 32 -21 0 -28 6 -35 33 -8 27 -6 34 10 41 13 7 26 6
40 -3 11 -7 21 -11 22 -9 1 2 17 44 35 93 94 255 256 421 444 456 63 12 70 16
95 53 32 49 108 90 197 108 33 7 123 12 200 11 230 -1 393 -39 613 -143 l123
-59 -26 48 c-74 134 -238 315 -378 415 -132 94 -341 184 -512 221 -83 19 -356
28 -437 15z m-38 -98 c0 -15 -61 -31 -83 -22 -22 8 -22 8 3 18 30 13 80 15 80
4z m-147 -71 c14 -14 -56 -39 -83 -29 l-24 9 29 19 c28 17 59 17 78 1z m-120
-91 c4 -4 -1 -17 -11 -30 -17 -21 -23 -22 -52 -14 l-32 9 22 28 c21 27 49 30
73 7z m-80 -120 c17 -16 -13 -50 -43 -50 -37 0 -46 15 -25 46 12 19 21 23 38
18 12 -3 26 -10 30 -14z m833 -6 c15 -22 15 -27 3 -35 -24 -15 -58 -10 -69 10
-16 30 -12 39 18 44 15 2 28 5 29 6 2 0 10 -11 19 -25z m142 2 c10 -22 8 -25
-16 -31 -20 -5 -31 -1 -44 15 -26 32 -22 40 15 40 26 0 36 -6 45 -24z m128 16
c6 -4 14 -17 18 -29 7 -20 4 -23 -23 -23 -24 0 -34 7 -46 30 -15 30 -15 30 12
30 16 0 33 -4 39 -8z m157 -29 c4 -2 7 -13 7 -25 0 -18 -4 -20 -32 -14 -37 7
-34 5 -43 35 -7 22 -5 23 27 16 18 -4 36 -9 41 -12z m-559 -25 c15 -21 15 -23
-10 -36 -23 -12 -28 -11 -50 9 -29 27 -30 36 -6 42 36 10 51 6 66 -15z m697
-31 c11 -19 9 -20 -22 -13 -38 7 -35 5 -43 33 -7 21 -5 22 24 12 17 -6 35 -20
41 -32z m-820 -26 c22 -18 23 -21 8 -36 -13 -14 -20 -14 -45 -3 -40 17 -39 16
-19 38 22 25 27 25 56 1z m-622 -27 c3 -3 0 -17 -5 -32 -8 -22 -14 -26 -39
-24 -38 5 -38 5 -30 42 6 29 9 31 38 24 18 -3 34 -8 36 -10z m561 -64 c22 -14
-1 -46 -31 -42 -31 3 -41 15 -33 35 7 19 40 22 64 7z m-592 -70 c13 0 16 -28
6 -54 -6 -16 -59 -23 -67 -8 -3 4 -2 22 0 40 5 29 9 33 27 28 11 -3 27 -6 34
-6z m10 -177 c3 -32 2 -33 -32 -33 -22 0 -36 5 -36 13 0 6 -3 22 -6 35 -6 22
-4 23 32 20 36 -3 39 -6 42 -35z m13 -140 c6 -32 5 -33 -26 -33 -34 0 -45 13
-45 51 0 17 6 20 32 17 27 -3 33 -8 39 -35z m35 -151 c6 -30 5 -32 -24 -32
-34 0 -36 2 -46 42 -5 24 -3 27 21 30 35 5 41 0 49 -40z"/>
<path d="M6460 4909 c-240 -38 -353 -134 -498 -424 -91 -183 -153 -365 -382
-1115 -56 -184 -118 -379 -137 -433 -19 -54 -33 -100 -30 -103 2 -3 25 5 50
17 30 15 48 31 52 47 5 22 10 24 48 19 29 -4 69 2 127 18 47 13 190 47 317 76
128 29 237 55 242 58 4 3 47 143 96 311 189 660 253 862 322 1020 145 330 273
443 458 407 l40 -8 -49 32 c-63 40 -110 56 -215 74 -92 16 -349 19 -441 4z
m385 -99 c-36 -24 -84 -28 -65 -6 11 14 35 22 75 25 16 1 14 -3 -10 -19z
m-505 -4 c-19 -18 -60 -30 -60 -18 0 10 38 30 60 31 13 1 13 -1 0 -13z m-90
-91 c-23 -24 -70 -35 -70 -16 0 16 43 41 69 41 l24 0 -23 -25z m500 0 c-21
-22 -70 -35 -70 -18 0 18 37 43 63 43 l30 0 -23 -25z m-560 -83 c0 -23 -34
-52 -61 -52 -34 0 -35 2 -13 35 11 17 26 25 45 25 16 0 29 -3 29 -8z m490 -22
c-21 -29 -62 -41 -74 -22 -12 20 25 52 60 52 l35 0 -21 -30z m-557 -86 c3 -4
-1 -20 -9 -36 -13 -25 -19 -29 -42 -23 -36 9 -37 11 -18 40 15 23 54 34 69 19z
m507 -7 c0 -24 -31 -57 -54 -57 -33 0 -37 9 -20 41 11 22 22 29 44 29 18 0 30
-5 30 -13z m-571 -147 c-9 -25 -16 -30 -45 -30 -38 0 -38 -1 -24 34 8 21 16
26 44 26 34 0 35 0 25 -30z m510 0 c-9 -25 -16 -30 -45 -30 -36 0 -41 9 -24
41 7 13 21 19 45 19 33 0 34 0 24 -30z m-560 -130 c-9 -25 -16 -30 -45 -30
-38 0 -38 -1 -24 34 8 21 16 26 44 26 34 0 35 0 25 -30z m510 0 c-9 -25 -16
-30 -45 -30 -38 0 -38 0 -22 35 9 19 19 25 44 25 32 0 33 -1 23 -30z m-549
-111 c0 -29 -22 -49 -55 -49 -33 0 -34 0 -24 30 9 25 16 30 45 30 19 0 34 -5
34 -11z m510 2 c0 -5 -4 -21 -10 -35 -7 -20 -16 -26 -40 -26 -32 0 -38 16 -20
51 11 20 70 28 70 10z m-550 -125 c0 -1 -5 -17 -11 -35 -9 -27 -16 -31 -45
-31 -37 0 -39 5 -24 44 8 21 16 26 45 26 19 0 35 -2 35 -4z m510 -10 c0 -8 -4
-25 -9 -38 -8 -20 -15 -24 -44 -20 -34 4 -34 4 -24 38 9 30 14 34 44 34 22 0
33 -5 33 -14z m-560 -143 c0 -29 -21 -53 -46 -53 -30 0 -38 18 -25 52 8 21 14
24 40 20 18 -2 31 -10 31 -19z m520 13 c0 -1 -5 -17 -11 -35 -9 -25 -16 -31
-40 -31 -22 0 -29 5 -29 19 0 38 11 51 46 51 19 0 34 -2 34 -4z m-572 -135 c9
-5 11 -17 6 -35 -8 -32 -11 -34 -51 -27 -31 6 -31 6 -18 39 14 32 36 40 63 23z
m526 -28 c-10 -41 -12 -43 -45 -43 -30 0 -33 7 -23 48 5 17 14 22 40 22 32 0
34 -2 28 -27z m-554 -112 c0 -5 -4 -21 -10 -35 -7 -20 -16 -26 -40 -26 -31 0
-38 17 -24 54 7 17 74 23 74 7z m508 1 c18 -12 -5 -75 -25 -68 -8 3 -23 6 -33
6 -16 0 -17 4 -7 35 10 35 35 45 65 27z m-554 -159 c-4 -16 -9 -31 -11 -35 -4
-8 -73 -12 -73 -4 0 1 5 17 11 35 9 27 16 31 45 31 32 0 34 -2 28 -27z m522 5
c-3 -13 -6 -29 -6 -35 0 -8 -14 -13 -35 -13 -36 0 -40 6 -29 48 5 17 13 22 41
22 32 0 35 -2 29 -22z m-573 -114 c12 -4 13 -11 5 -35 -8 -24 -15 -29 -44 -29
-19 0 -34 2 -34 4 0 1 5 17 11 35 11 31 29 38 62 25z m537 -20 c0 -32 -20 -54
-50 -54 -31 0 -34 7 -24 48 5 17 14 22 40 22 24 0 34 -5 34 -16z m-573 -149
c-9 -29 -15 -35 -38 -35 -35 0 -42 11 -29 44 8 21 16 26 44 26 l34 0 -11 -35z
m533 16 c-1 -36 -14 -51 -46 -51 -32 0 -34 2 -28 28 4 15 8 30 10 33 4 7 64
-1 64 -10z m-571 -127 c6 -5 -15 -59 -22 -56 -4 1 -18 2 -32 2 -28 0 -30 6
-15 45 8 22 14 24 37 19 16 -4 30 -8 32 -10z"/>
<path d="M7028 4760 c-85 -26 -182 -131 -253 -276 -64 -130 -64 -135 -17 -261
52 -138 111 -337 257 -853 147 -523 263 -908 310 -1030 20 -52 65 -154 100
-225 51 -107 75 -144 133 -206 81 -86 139 -121 248 -149 69 -18 110 -20 378
-20 301 1 301 1 265 20 -144 76 -304 400 -492 995 -36 116 -121 394 -187 619
-317 1069 -432 1327 -617 1382 -51 15 -84 16 -125 4z m262 -249 c15 -29 13
-33 -16 -29 -17 2 -30 11 -35 26 -7 19 -5 22 16 22 14 0 29 -8 35 -19z m64
-133 c19 -26 13 -38 -20 -38 -17 0 -27 8 -34 26 -13 34 -13 34 14 34 14 0 32
-9 40 -22z m-519 -26 c-3 -3 -11 0 -18 7 -9 10 -8 11 6 5 10 -3 15 -9 12 -12z
m59 -98 c10 -27 7 -34 -18 -34 -22 0 -36 16 -36 41 0 16 48 10 54 -7z m514 -9
c16 -35 16 -35 -18 -35 -24 0 -33 6 -40 26 -13 34 -14 34 18 34 21 0 32 -7 40
-25z m-468 -131 c14 -35 14 -34 -20 -34 -19 0 -30 5 -30 14 0 8 -3 21 -6 30
-5 12 0 16 20 16 19 0 29 -7 36 -26z m518 -3 c10 -27 9 -29 -19 -33 -22 -3
-33 0 -40 13 -17 33 -11 49 20 49 23 0 31 -6 39 -29z m-473 -131 c20 -39 20
-40 -20 -40 -21 0 -35 5 -35 13 0 6 -3 22 -6 35 -5 19 -2 22 20 22 18 0 30 -8
41 -30z m515 11 c19 -37 12 -51 -25 -51 -21 0 -35 5 -35 13 0 6 -3 22 -6 35
-6 19 -3 22 24 22 21 0 35 -7 42 -19z m-468 -156 c3 -25 -1 -31 -21 -33 -27
-4 -51 20 -51 49 0 12 9 19 28 21 34 5 40 0 44 -37z m516 6 c12 -35 8 -41 -29
-41 -21 0 -29 7 -38 31 -6 18 -11 34 -11 35 0 2 15 4 34 4 29 0 36 -5 44 -29z
m-483 -113 c3 -7 6 -24 7 -38 2 -20 -2 -26 -21 -28 -29 -4 -51 20 -51 55 0 19
5 23 30 23 17 0 33 -6 35 -12z m526 -15 c14 -37 5 -53 -29 -53 -24 0 -30 6
-39 34 -13 41 -9 46 29 46 22 0 31 -6 39 -27z m-488 -120 c2 -5 7 -20 11 -35
6 -26 4 -28 -28 -28 -29 0 -36 4 -45 31 -6 18 -11 34 -11 35 0 8 69 4 73 -3z
m527 -19 c15 -39 13 -44 -24 -44 -26 0 -35 5 -40 23 -11 40 -7 47 24 47 24 0
33 -6 40 -26z m-482 -143 c6 -16 8 -32 5 -35 -6 -6 -63 -9 -63 -3 0 1 -4 17
-9 35 -9 32 -9 32 24 32 28 0 35 -5 43 -29z m526 7 c11 -42 7 -48 -29 -48 -21
0 -35 5 -35 13 0 6 -3 22 -6 35 -6 20 -3 22 29 22 28 0 36 -5 41 -22z m-486
-140 c8 -32 8 -33 -26 -36 -40 -4 -38 -6 -47 36 -6 31 -6 32 29 32 32 0 36 -4
44 -32z m522 6 c14 -37 13 -41 -17 -47 -34 -7 -41 -1 -49 41 -6 31 -5 32 25
32 25 0 34 -6 41 -26z m-486 -136 c11 -41 7 -48 -24 -48 -24 0 -33 6 -40 26
-15 39 -13 44 24 44 26 0 35 -5 40 -22z m526 10 c0 -7 3 -23 6 -35 6 -21 3
-23 -29 -23 -36 0 -47 12 -47 51 0 15 7 19 35 19 21 0 35 -5 35 -12z m-489
-145 c14 -37 4 -55 -28 -51 -32 4 -55 54 -32 69 26 16 49 9 60 -18z m528 -4
c16 -46 15 -49 -22 -49 -30 0 -35 4 -44 34 -13 41 -9 46 28 46 21 0 29 -7 38
-31z m-489 -135 c15 -39 13 -44 -24 -44 -26 0 -35 5 -40 23 -11 40 -7 47 24
47 24 0 33 -6 40 -26z m530 0 c15 -37 13 -43 -17 -50 -30 -8 -53 15 -53 53 0
19 5 23 30 23 24 0 33 -6 40 -26z m-490 -140 c15 -39 13 -44 -25 -44 -19 0
-35 1 -35 3 0 1 -4 17 -9 35 -10 32 -9 32 25 32 28 0 36 -5 44 -26z m534 10
c14 -37 7 -54 -24 -54 -24 0 -33 6 -40 26 -15 39 -13 44 24 44 22 0 36 -6 40
-16z m-494 -140 c15 -39 13 -44 -24 -44 -26 0 -35 5 -40 23 -11 40 -7 47 24
47 24 0 33 -6 40 -26z m528 14 c5 -7 12 -24 14 -38 3 -22 -1 -25 -29 -28 -29
-3 -33 0 -41 30 -7 29 -6 34 12 40 31 9 33 9 44 -4z m-479 -158 c10 -30 9 -30
-25 -30 -28 0 -36 5 -44 26 -14 35 -14 34 24 34 29 0 36 -5 45 -30z m531 11
c18 -35 12 -51 -20 -51 -30 0 -50 22 -50 54 0 24 57 21 70 -3z m-490 -130 c17
-32 12 -41 -23 -41 -27 0 -35 5 -44 30 -11 30 -11 30 23 30 23 0 37 -6 44 -19z
m538 -6 c18 -39 15 -45 -22 -45 -29 0 -36 4 -45 31 -6 18 -11 34 -11 35 0 2
15 4 33 4 26 0 36 -6 45 -25z m-480 -135 c11 -29 10 -30 -20 -30 -52 0 -80 56
-30 62 36 5 38 3 50 -32z m532 11 c18 -35 12 -51 -20 -51 -22 0 -33 7 -44 29
-18 33 -13 41 25 41 18 0 32 -7 39 -19z m-480 -120 c16 -31 12 -41 -18 -41
-20 0 -32 8 -45 30 l-18 30 35 0 c25 0 38 -6 46 -19z m535 -11 c20 -39 20 -40
-15 -40 -31 0 -68 39 -55 60 13 22 54 11 70 -20z m-471 -115 c16 -25 16 -25
-13 -25 -20 0 -34 8 -45 25 -16 25 -16 25 13 25 20 0 34 -8 45 -25z m512 17
c6 -4 16 -17 23 -29 11 -22 10 -23 -21 -23 -34 0 -65 30 -53 50 7 12 35 13 51
2z m-445 -112 c19 -15 20 -19 8 -20 -9 0 -27 9 -40 20 -19 15 -20 19 -8 20 9
0 27 -9 40 -20z m524 -10 c10 -11 15 -23 11 -27 -11 -11 -61 11 -64 30 -5 24
30 22 53 -3z"/>
<path d="M2633 4166 c-191 -62 -334 -265 -399 -566 -24 -111 -29 -343 -11
-465 41 -265 159 -484 314 -583 278 -176 587 58 689 523 22 98 29 311 15 420
-42 314 -169 547 -353 645 -52 28 -75 34 -138 37 -45 2 -92 -3 -117 -11z m120
-105 c28 -11 55 -50 64 -91 l5 -30 -43 6 c-39 5 -110 -9 -161 -31 -25 -10 -23
9 6 72 15 31 36 58 53 67 33 18 44 19 76 7z m264 -193 c24 -27 66 -108 81
-158 25 -84 19 -89 -17 -15 -39 78 -89 145 -110 145 -17 0 -44 -49 -74 -134
-27 -80 -27 -80 -22 -29 6 59 35 149 60 187 21 32 55 34 82 4z m-521 -33 c3
-8 -10 -40 -30 -72 -38 -62 -96 -223 -97 -269 0 -16 -4 -38 -8 -49 -8 -19 -8
-19 -20 2 -43 82 -7 263 75 370 27 35 70 45 80 18z m267 -395 c14 -16 28 -47
32 -68 14 -85 -39 -186 -86 -161 -51 27 -72 121 -45 194 27 70 60 82 99 35z
m-384 -297 c20 -95 49 -171 93 -244 36 -60 36 -79 0 -79 -67 0 -143 153 -145
290 -2 68 15 141 29 128 3 -3 13 -46 23 -95z m717 -176 c-47 -153 -119 -227
-160 -165 -24 36 -55 133 -61 191 -6 51 -6 51 22 -28 29 -83 57 -135 72 -135
20 0 81 86 112 156 18 41 35 72 37 69 3 -2 -7 -42 -22 -88z m-443 -222 c21 -8
67 -15 106 -15 l70 0 -9 -29 c-14 -50 -31 -72 -65 -87 -23 -9 -42 -11 -58 -5
-31 12 -75 65 -83 99 -3 15 -7 33 -10 40 -5 16 6 15 49 -3z"/>
<path d="M2982 4174 c-9 -4 11 -29 57 -73 124 -115 216 -309 255 -536 21 -118
21 -335 0 -456 -41 -238 -150 -459 -281 -566 -52 -43 -45 -53 39 -53 223 0
408 199 495 535 26 102 28 123 28 305 0 205 -11 291 -57 425 -59 173 -171 322
-290 385 -55 30 -74 34 -148 37 -47 1 -91 0 -98 -3z m239 -172 c188 -121 304
-453 269 -773 -25 -232 -89 -389 -202 -495 -92 -88 -132 -99 -59 -17 273 306
266 962 -14 1251 -66 67 -64 78 6 34z"/>
<path d="M7823 3433 c12 -44 60 -209 94 -325 l38 -128 31 0 c20 0 34 -6 38
-16 12 -31 6 -44 -19 -44 -27 0 -30 -6 -15 -44 7 -18 19 -27 47 -31 108 -18
205 -61 266 -119 37 -35 75 -118 83 -184 7 -61 12 -58 43 36 48 142 47 289 -3
434 -35 100 -81 173 -161 254 -81 82 -191 141 -312 168 -98 22 -137 21 -130
-1z m119 -76 c16 -25 8 -37 -26 -37 -34 0 -46 13 -46 47 0 12 7 14 32 9 18 -3
36 -12 40 -19z m116 -27 c17 -11 32 -26 32 -34 0 -25 -74 6 -78 32 -4 27 4 27
46 2z m147 -91 l20 -23 -35 22 c-19 11 -36 26 -38 32 -6 17 29 -3 53 -31z
m-47 -306 c22 -29 15 -46 -15 -39 -30 8 -53 31 -53 54 0 19 50 7 68 -15z m133
-77 c8 -30 2 -32 -31 -9 -31 21 -40 33 -40 56 0 18 2 18 32 -1 18 -12 36 -32
39 -46z m82 -78 c6 -22 5 -22 -8 -4 -17 22 -20 40 -6 32 5 -3 11 -16 14 -28z"/>
<path d="M6830 3194 c-170 -73 -452 -164 -645 -208 -587 -133 -706 -173 -862
-290 -113 -86 -173 -167 -220 -302 -24 -70 -27 -93 -27 -199 1 -142 26 -234
90 -330 113 -172 322 -204 509 -80 96 64 203 207 270 359 l26 59 -44 -6 c-25
-4 -89 -20 -143 -38 -233 -74 -384 -183 -384 -276 0 -67 65 -101 173 -91 l52
5 -35 -15 c-53 -22 -137 -21 -185 4 -111 58 -68 203 92 310 123 82 299 139
658 215 363 77 606 151 893 274 71 30 111 53 108 60 -6 16 -98 334 -141 485
-20 72 -38 116 -46 116 -8 1 -70 -22 -139 -52z m142 -58 c4 -18 -1 -27 -18
-35 -19 -9 -24 -7 -30 11 -4 15 -1 26 12 35 25 18 31 17 36 -11z m-112 -44 c0
-21 -7 -32 -26 -41 -30 -13 -29 -14 -38 16 -6 17 -1 25 21 37 39 21 43 20 43
-12z m-126 -44 c9 -34 8 -35 -26 -47 -36 -13 -34 -14 -43 20 -6 23 -3 28 22
37 40 15 40 15 47 -10z m-130 -50 c4 -15 0 -27 -11 -35 -20 -15 -53 -17 -53
-4 0 5 -3 16 -6 25 -4 11 2 19 17 25 37 15 46 13 53 -11z m-130 -44 c8 -32 8
-32 -32 -40 -33 -7 -32 -7 -36 38 -1 10 24 22 55 27 4 1 10 -11 13 -25z m-130
-40 c8 -31 9 -30 -31 -39 -29 -6 -33 -4 -39 20 -7 30 6 45 42 45 15 0 24 -8
28 -26z m-134 -33 c0 -23 -6 -30 -25 -35 -33 -8 -45 -1 -45 29 0 23 13 31 53
34 12 1 17 -7 17 -28z m-127 -27 c4 -20 -1 -27 -21 -35 -14 -5 -31 -8 -39 -5
-20 8 -16 54 5 59 39 10 50 7 55 -19z m-133 -34 c0 -23 -5 -30 -20 -31 -11 -1
-25 -2 -32 -3 -6 -1 -15 11 -19 26 -7 28 0 34 49 37 18 1 22 -4 22 -29z m-136
-16 c12 -30 6 -42 -26 -48 -36 -7 -33 -8 -42 22 -6 17 -2 24 16 31 34 14 45
13 52 -5z m-127 -67 c-5 -13 -55 -33 -62 -25 -2 2 -6 15 -10 29 -6 23 -2 27
27 36 28 8 34 7 42 -8 5 -10 6 -24 3 -32z m-127 -38 c0 -15 -38 -39 -61 -39
-21 0 -4 55 21 67 26 13 40 4 40 -28z m1520 0 c0 -9 -12 -21 -26 -28 -31 -14
-30 -14 -39 20 -6 23 -3 28 22 36 30 11 43 2 43 -28z m-1640 -59 c0 -17 -53
-53 -64 -43 -15 15 -4 50 21 65 29 17 43 10 43 -22z m1512 16 c4 -18 -1 -27
-19 -35 -34 -15 -40 -14 -47 12 -4 14 0 26 11 35 27 19 50 14 55 -12z m-130
-78 c-13 -12 -62 -21 -62 -10 0 6 -3 17 -6 26 -4 12 3 20 27 30 33 14 34 14
41 -12 4 -15 4 -30 0 -34z m-1526 -49 l-26 -31 0 28 c0 15 10 39 23 52 22 24
22 24 25 3 2 -12 -8 -35 -22 -52z m1398 39 c9 -34 8 -35 -26 -47 -24 -9 -34
-8 -40 1 -15 25 -8 46 20 56 38 15 39 14 46 -10z m-132 -52 c4 -21 0 -27 -25
-35 -36 -13 -47 -7 -47 24 0 17 8 26 28 33 33 11 38 9 44 -22z m-132 -35 c0
-25 -5 -31 -31 -36 -35 -8 -36 -8 -41 24 -2 19 3 26 22 32 44 12 50 10 50 -20z
m-137 -28 c6 -34 6 -35 -35 -36 -27 -2 -34 2 -36 21 -2 16 3 25 20 31 37 15
45 13 51 -16z m-1094 -27 c-9 -8 -10 -7 -5 7 3 10 7 24 7 30 1 7 3 4 6 -7 3
-10 -1 -23 -8 -30z m961 -5 c0 -29 -14 -41 -51 -41 -26 0 -27 56 -1 63 43 11
52 7 52 -22z m-136 -17 c12 -30 6 -42 -25 -49 -35 -8 -35 -8 -44 27 -5 20 -3
27 12 31 35 9 51 7 57 -9z m-130 -36 c9 -35 8 -36 -25 -43 -48 -11 -71 37 -26
55 35 14 44 12 51 -12z m-131 -40 c8 -28 3 -34 -29 -42 -18 -5 -30 -3 -35 6
-14 22 -10 46 9 51 37 10 50 6 55 -15z m-129 -40 c9 -34 8 -35 -25 -48 -26
-11 -32 -11 -40 1 -16 26 -9 47 19 57 38 15 39 14 46 -10z m-124 -79 c0 -15
-47 -55 -55 -47 -2 2 -6 15 -10 30 -6 22 -2 29 22 41 30 16 43 9 43 -24z
m-131 -106 c-13 -12 -26 -23 -31 -23 -16 0 -7 44 14 67 l22 24 8 -22 c6 -17 3
-28 -13 -46z m459 2 c-9 -19 -19 -25 -45 -25 -33 0 -33 0 -17 25 11 17 25 25
45 25 27 0 28 -2 17 -25z m-538 -79 c0 -12 -7 -31 -15 -42 -14 -18 -14 -17
-15 13 0 39 9 65 21 57 5 -3 9 -15 9 -28z m470 -36 c-10 -19 -60 -29 -60 -12
0 16 24 32 47 32 21 0 22 -3 13 -20z"/>
<path d="M2128 3055 c-61 -163 -87 -269 -107 -420 -20 -157 -21 -204 -10 -301
27 -244 139 -428 314 -514 89 -44 166 -61 305 -67 379 -17 739 124 1005 392
85 85 233 280 222 291 -2 2 -37 -14 -78 -36 -207 -108 -386 -153 -619 -154
-135 -1 -162 2 -212 21 -80 30 -117 59 -140 110 -18 41 -21 43 -61 43 -91 0
-212 46 -294 112 -62 49 -140 151 -186 245 -41 83 -42 83 -80 83 -36 0 -39 2
-33 23 3 12 6 28 6 35 0 6 9 12 21 12 17 0 19 4 13 23 -4 12 -15 56 -24 97
l-16 75 -26 -70z m53 -273 c12 -6 14 -14 7 -40 -8 -30 -12 -33 -41 -30 -29 3
-32 6 -28 33 1 17 5 33 8 38 5 9 32 8 54 -1z m-11 -154 c-1 -43 -13 -58 -47
-58 -32 0 -35 2 -29 23 3 12 6 28 6 35 0 7 14 12 35 12 21 0 35 -5 35 -12z
m-10 -162 c0 -35 -13 -46 -51 -46 -16 0 -19 7 -19 40 0 39 1 40 35 40 33 0 35
-2 35 -34z m567 -120 c-7 -18 -60 -27 -69 -13 -17 27 -8 46 25 49 33 3 53 -13
44 -36z m-567 -10 c0 -8 3 -22 6 -31 6 -14 0 -16 -32 -13 -34 3 -39 6 -42 31
-3 25 -1 27 32 27 24 0 36 -5 36 -14z m620 -61 c10 -12 8 -18 -11 -35 -28 -23
-40 -25 -57 -8 -19 19 -14 38 11 48 32 13 43 12 57 -5z m-590 -81 c13 -33 6
-44 -30 -44 -22 0 -29 6 -34 27 -12 46 47 62 64 17z m684 13 c16 -12 15 -14
-7 -35 -21 -20 -28 -21 -51 -11 -32 15 -33 22 -3 42 27 20 38 20 61 4z m676 4
c0 -15 -54 -54 -58 -42 -6 18 18 51 38 51 11 0 20 -4 20 -9z m-127 -38 c-3
-10 -10 -24 -16 -30 -13 -18 -57 -16 -57 1 0 22 29 46 55 46 19 0 23 -4 18
-17z m-418 -3 c13 -21 -15 -50 -50 -50 -39 0 -42 6 -19 38 15 22 58 30 69 12z
m145 -4 c0 -3 -4 -16 -10 -30 -8 -21 -16 -26 -44 -26 -34 0 -35 0 -25 30 9 25
16 30 45 30 19 0 34 -2 34 -4z m134 -18 c-8 -29 -22 -38 -56 -38 -25 0 -26 1
-15 30 10 25 17 30 45 30 30 0 33 -2 26 -22z m-1034 -80 c23 -29 17 -38 -24
-38 -25 0 -35 6 -44 24 -8 19 -8 26 1 30 27 10 50 5 67 -16z m90 -113 c19 -20
20 -25 8 -25 -9 0 -23 -2 -30 -5 -8 -3 -27 4 -43 17 l-29 22 25 7 c39 11 44
10 69 -16z m120 -80 l25 -14 -30 -1 c-46 0 -79 11 -63 21 19 12 39 10 68 -6z"/>
</g>
</svg>
